<?xml version="1.0" encoding="UTF-8" standalone="no"?>
<svg
   xmlns:dc="http://purl.org/dc/elements/1.1/"
   xmlns:cc="http://creativecommons.org/ns#"
   xmlns:rdf="http://www.w3.org/1999/02/22-rdf-syntax-ns#"
   xmlns:svg="http://www.w3.org/2000/svg"
   xmlns="http://www.w3.org/2000/svg"
   xmlns:sodipodi="http://sodipodi.sourceforge.net/DTD/sodipodi-0.dtd"
   xmlns:inkscape="http://www.inkscape.org/namespaces/inkscape"
   width="700"
   height="162.51508"
   viewBox="0 0 700 162.51508"
   version="1.1"
   id="svg13"
   sodipodi:docname="YUP Commerce Logo - Original with Transparent Background.svg"
   inkscape:version="1.0.2 (e86c870879, 2021-01-15)">
  <metadata
     id="metadata17">
    <rdf:RDF>
      <cc:Work
         rdf:about="">
        <dc:format>image/svg+xml</dc:format>
        <dc:type
           rdf:resource="http://purl.org/dc/dcmitype/StillImage" />
        <dc:title></dc:title>
      </cc:Work>
    </rdf:RDF>
  </metadata>
  <sodipodi:namedview
     pagecolor="#ffffff"
     bordercolor="#666666"
     borderopacity="1"
     objecttolerance="10"
     gridtolerance="10"
     guidetolerance="10"
     inkscape:pageopacity="0"
     inkscape:pageshadow="2"
     inkscape:window-width="1366"
     inkscape:window-height="704"
     id="namedview15"
     showgrid="false"
     inkscape:zoom="0.55857143"
     inkscape:cx="839.67287"
     inkscape:cy="33.786353"
     inkscape:window-x="0"
     inkscape:window-y="27"
     inkscape:window-maximized="1"
     inkscape:current-layer="svg13" />
  <defs
     id="defs2" />
  <path
     fill="#fd5631"
     d="M 95.956497,1.0781752 C 95.345538,0.39533871 94.986151,0.03595109 94.986151,0.03595109 H 2.654441e-6 L 71.625955,71.661904 l 9.59565,9.595649 v 0 C 118.05884,34.357469 101.45513,7.7268462 95.956497,1.0781752 Z"
     id="path4"
     style="stroke-width:0.359388" />
  <g
     opacity="0.3"
     transform="matrix(0.35938762,0,0,0.35938762,-146.79694,-405.98221)"
     id="g8">
    <path
       d="m 675.4641,1132.65 c -1.7,-1.9 -2.7,-2.9 -2.7,-2.9 0,0 25.2,77.8 -64.9,199.3 l 26.7,26.7 v 0 c 102.4,-130.5 56.2,-204.6 40.9,-223.1 z"
       id="path6" />
  </g>
  <path
     fill="#fd5631"
     d="M 138.3283,43.629669 95.022089,1.232906e-5 C 95.273661,0.25158366 95.59711,0.61097128 95.956497,1.0422364 101.45513,7.6909074 118.05884,34.32153 81.257544,81.221614 v 0 L 2.654441e-6,162.51509 H 95.022089 L 176.09994,81.113798 Z"
     id="path10"
     style="stroke-width:0.359388" />
  <path
     id="text"
     fill="#fd5631"
     d="m 233.6367,41.620266 h 9.14879 l -12.7993,46.014386 v 33.305228 h -9.32906 V 87.634652 l -13.7908,-46.014386 h 9.05866 l 9.37413,32.448934 h 0.18027 z m 38.08243,0 h 9.284 v 58.948894 c 0,7.42119 -1.16425,12.82935 -3.49277,16.22447 -2.3285,3.39512 -6.36209,5.09268 -12.10075,5.09268 -5.73865,0 -9.79477,-1.69756 -12.16835,-5.09268 -2.37358,-3.39512 -3.56036,-8.80328 -3.56036,-16.22447 V 41.620266 h 9.32906 v 58.723554 c 0,5.28797 0.21784,8.45025 0.65349,9.48681 0.43566,1.03657 0.89385,1.8553 1.37457,2.4562 0.84127,1.14173 2.29847,1.71259 4.37159,1.71259 2.07313,0 3.60544,-0.63095 4.59693,-1.89286 0.9915,-1.2619 1.52481,-3.13974 1.59992,-5.6335 0.0751,-2.49376 0.11267,-4.52181 0.11267,-6.08417 z m 21.81289,0 h 15.95406 c 7.0306,0 11.44726,2.914395 13.24998,8.743185 1.14172,3.665527 1.71258,7.946979 1.71258,12.844365 0,4.897385 -0.13519,8.57794 -0.4056,11.041656 -0.60091,5.408156 -2.02807,9.3516 -4.28146,11.830343 -2.2534,2.478733 -5.67857,3.7181 -10.2755,3.7181 h -6.62499 v 31.141965 h -9.32907 z m 21.58756,22.398773 c 0,-5.438201 -0.42814,-9.299018 -1.28444,-11.582462 -0.85628,-2.283444 -2.54634,-3.425165 -5.07015,-3.425165 h -5.9039 v 33.034813 h 5.67857 c 2.64399,0 4.40163,-1.15674 5.27295,-3.470229 0.87131,-2.313488 1.30697,-6.65504 1.30697,-13.024646 z m 40.29076,0.495752 c 0,-6.009061 0.49574,-10.425722 1.48724,-13.249981 0.99149,-2.824259 2.07313,-4.897386 3.24489,-6.219379 2.55385,-2.88435 6.27947,-4.341552 11.17686,-4.371598 6.85033,0.03 11.26699,3.049604 13.24998,9.058666 1.14172,3.455211 1.71258,8.052143 1.71258,13.790797 v 8.788249 h -9.14879 v -8.833322 c 0,-5.077657 -0.27792,-8.510331 -0.83376,-10.298022 -0.55583,-1.787701 -1.22435,-2.974486 -2.00553,-3.560374 -0.78117,-0.585879 -1.77267,-0.878823 -2.97448,-0.878823 -2.49376,0 -4.21385,1.179276 -5.16028,3.537838 -0.94643,2.358552 -1.41964,6.076661 -1.41964,11.154318 v 34.341789 c 0,6.009061 0.42815,10.207901 1.28443,12.596491 0.8563,2.38861 2.50879,3.5829 4.95748,3.5829 2.4487,0 4.08616,-1.20181 4.91241,-3.60543 0.82624,-2.40363 1.23937,-6.60997 1.23937,-12.619033 v -8.788249 h 9.23893 v 8.698113 c 0,8.322549 -1.13421,14.444289 -3.40263,18.365199 -2.26842,3.92091 -6.22689,5.88137 -11.87541,5.88137 -5.64852,0 -9.67459,-2.02055 -12.07821,-6.06164 -2.40363,-4.0411 -3.60544,-10.13279 -3.60544,-18.275065 z m 41.37239,-1.352038 c 0,-9.013593 1.62245,-15.202927 4.86734,-18.568002 2.55385,-2.643987 6.26445,-3.965981 11.13179,-3.965981 7.09069,0 11.62753,2.914395 13.61052,8.743185 1.17177,3.455211 1.75766,8.052143 1.75766,13.790798 v 34.97274 c 0,8.262457 -1.15675,14.279027 -3.47024,18.049727 -2.31349,3.77068 -6.36209,5.65602 -12.14582,5.65602 -5.78371,0 -9.85486,-1.89285 -12.21341,-5.67856 -2.35856,-3.78571 -3.53784,-9.79477 -3.53784,-18.027187 z m 22.03823,-0.540816 c 0,-5.077657 -0.4056,-8.675586 -1.21683,-10.793775 -0.81122,-2.118199 -2.4487,-3.177294 -4.91241,-3.177294 -2.46372,0 -4.1763,1.081631 -5.13775,3.244893 -0.96145,2.163263 -1.44217,5.723627 -1.44217,10.681103 v 35.648765 c 0,6.039111 0.42063,10.147801 1.2619,12.326081 0.84127,2.17829 2.53883,3.26743 5.09268,3.26743 2.55386,0 4.25141,-1.10416 5.09268,-3.31249 0.84127,-2.20833 1.2619,-6.302 1.2619,-12.281021 z m 55.16319,-21.001671 h 11.67261 v 79.319614 h -8.29251 V 89.1219 l 0.76615,-29.654721 -10.77123,61.337491 h -8.42772 L 447.70953,59.467179 448.47568,89.1219 v 31.81798 h -8.24743 V 41.620266 h 11.62754 l 11.35712,65.213344 z m 58.40808,0 h 11.67261 v 79.319614 h -8.2925 V 89.1219 l 0.76615,-29.654721 -10.77124,61.337491 h -8.42772 L 506.11761,59.467179 506.88377,89.1219 v 31.81798 h -8.24744 V 41.620266 h 11.62754 l 11.35712,65.213344 z m 24.65218,0 h 23.70575 v 7.751689 H 566.37348 V 76.50287 H 579.984 v 7.75169 h -13.61052 v 28.93363 h 14.55696 v 7.75169 h -23.88603 z m 34.7474,0 h 16.63008 c 4.71712,0 8.11224,0.976467 10.18536,2.929412 2.07313,1.952946 3.32001,5.272957 3.74064,9.960025 0.18027,1.9229 0.27041,4.919922 0.27041,8.991057 0,4.071144 -0.5333,7.488791 -1.59991,10.252959 -1.06661,2.764169 -2.95195,4.55187 -5.65603,5.363093 1.98299,0.330498 3.48526,1.374575 4.5068,3.132221 1.02154,1.757656 1.74263,4.551869 2.16326,8.382642 0.42063,3.830781 0.63095,9.524365 0.63095,17.080765 0,7.55639 0.24036,11.96554 0.72109,13.22744 h -9.284 c -0.48073,-0.96145 -0.72109,-9.86989 -0.72109,-26.725305 0,-5.678563 -0.55584,-8.976029 -1.66752,-9.892416 -1.11168,-0.916377 -2.79421,-1.374575 -5.04761,-1.374575 l -5.54336,-0.315471 v 38.307767 h -9.32907 z m 21.58756,19.424287 c 0,-6.099197 -0.54832,-9.629517 -1.64498,-10.590966 -1.09665,-0.96145 -2.68154,-1.442175 -4.75467,-1.442175 h -5.85884 v 26.770371 h 5.94898 c 1.80271,0 3.12471,-0.345526 3.96598,-1.036568 0.84126,-0.691042 1.44217,-2.013036 1.80271,-3.965981 0.36055,-1.952945 0.54082,-5.017567 0.54082,-9.193865 z m 20.46086,3.470238 c 0,-6.009061 0.49574,-10.425722 1.48723,-13.249981 0.9915,-2.824259 2.07313,-4.897386 3.2449,-6.219379 2.55385,-2.88435 6.27947,-4.341552 11.17685,-4.371598 6.85033,0.03 11.26699,3.049604 13.24998,9.058666 1.14173,3.455211 1.71259,8.052143 1.71259,13.790797 v 8.788249 h -9.14879 v -8.833322 c 0,-5.077657 -0.27792,-8.510331 -0.83376,-10.298022 -0.55584,-1.787701 -1.22435,-2.974486 -2.00553,-3.560374 -0.78118,-0.585879 -1.77267,-0.878823 -2.97449,-0.878823 -2.49376,0 -4.21385,1.179276 -5.16027,3.537838 -0.94643,2.358552 -1.41965,6.076661 -1.41965,11.154318 v 34.341789 c 0,6.009061 0.42815,10.207901 1.28444,12.596491 0.8563,2.38861 2.50879,3.5829 4.95748,3.5829 2.44869,0 4.08616,-1.20181 4.91241,-3.60543 0.82624,-2.40363 1.23937,-6.60997 1.23937,-12.619033 v -8.788249 h 9.23892 v 8.698113 c 0,8.322549 -1.1342,14.444289 -3.40263,18.365199 -2.26841,3.92091 -6.22688,5.88137 -11.8754,5.88137 -5.64852,0 -9.67459,-2.02055 -12.07822,-6.06164 -2.40362,-4.0411 -3.60543,-10.13279 -3.60543,-18.275065 z m 42.27375,-22.894525 h 23.70575 v 7.751689 H 685.44304 V 76.50287 h 13.61053 v 7.75169 h -13.61053 v 28.93363 H 700 v 7.75169 h -23.88602 z"
     style="stroke-width:0.96145" />
</svg>
